PathFileType	4	(X/Y/Z)	/home/skhan/TracX/Projects/SHARESPACE/EXERCISES/pose-3d/online_20250326-113730_310-350.trc
DataRate	CameraRate	NumFrames	NumMarkers	Units	OrigDataRate	OrigDataStartFrame	OrigNumFrames
30	30	4	37	m	30	600	1200
Frame#	Time	Hip			RHip			RKnee			RAnkle			RBigToe			RSmallToe			RHeel			LHip			LKnee			LAnkle			LBigToe			LSmallToe			LHeel			Spine_01			Spine_02			Spine_03			Spine_04			Spine_05			LLatissimus			RLatissimus			RClavicle			RShoulder			RElbow			RWrist			LClavicle			LShoulder			LElbow			LWrist			Neck			Neck_02			Neck_03			Head			Nose			LEye			LEar			REye			REar		
		X1	Y1	Z1	X2	Y2	Z2	X3	Y3	Z3	X4	Y4	Z4	X5	Y5	Z5	X6	Y6	Z6	X7	Y7	Z7	X8	Y8	Z8	X9	Y9	Z9	X10	Y10	Z10	X11	Y11	Z11	X12	Y12	Z12	X13	Y13	Z13	X14	Y14	Z14	X15	Y15	Z15	X16	Y16	Z16	X17	Y17	Z17	X18	Y18	Z18	X19	Y19	Z19	X20	Y20	Z20	X21	Y21	Z21	X22	Y22	Z22	X23	Y23	Z23	X24	Y24	Z24	X25	Y25	Z25	X26	Y26	Z26	X27	Y27	Z27	X28	Y28	Z28	X29	Y29	Z29	X30	Y30	Z30	X31	Y31	Z31	X32	Y32	Z32	X33	Y33	Z33	X34	Y34	Z34	X35	Y35	Z35	X36	Y36	Z36	X37	Y37	Z37
600	20.0	-0.05192798821462147	-0.4683947934829386	0.19814975702551543	-0.018963080485508557	-0.3766839436593699	0.06647672431125266	0.32645182344942686	-0.712467051161469	-0.08953421023003896	0.6566432027506975	-0.906782814515318	-0.1233007091669377	0.8283706565562171	-0.8669424292806108	-0.17477528515648164	0.7849439340248131	-0.8671880893763014	-0.2080100623571587	0.6846756026676287	-0.915707597281875	-0.07082536477810378	0.05684832194299158	-0.39113180342469833	0.2823713893603995	0.37966306255016324	-0.670102741859579	0.10645213307112589	0.7021525823801796	-0.9093701963161104	-0.04085120977783993	0.8510314218780557	-0.8822631014184529	-0.1608958912846196	0.8685654005754555	-0.8872810326218894	-0.10050516732779818	0.7156146979953826	-0.9497430240366093	-0.028417798092760328	-0.10050325518380158	-0.42600625047538043	0.21501844463216027	-0.17939066662322609	-0.35452722483001925	0.24859595839159623	-0.27624567943564204	-0.258395428614539	0.29060347740986314	-0.38264550641601247	-0.1617325670323199	0.33661759939094105	-0.48024594560724165	-0.059203070779259986	0.3848730305900314	-0.22646979298379769	-0.24442459230981428	0.3941762164307257	-0.36605350325857466	-0.25949849471593384	0.17645792853668893	-0.46668067488713366	-0.09275453695653205	0.34365194411260724	-0.587481340063126	-0.0657150113126396	0.19815694694297126	-0.5861099397328887	-0.1428851027392967	-0.09430254179560557	-0.45520892864753604	0.011530476640867454	-0.2369498605874358	-0.44181529569759853	-0.0885390454169335	0.37368293652538365	-0.3558871055116455	-0.09198922688918734	0.5472327068833204	-0.09415197839716426	-0.30855658736679525	0.502975781358369	0.15541748235272485	-0.489473939958098	0.36026961913151273	-0.5564570580707385	0.015429839998586617	0.4327199349481086	-0.5870733720690612	0.04978098818271508	0.45968299145850117	-0.6291759683775285	0.1004784865898195	0.4992113496446471	-0.6944384317981196	0.18140177316873726	0.561109693344536	-0.5959578068005451	0.17283919950465704	0.4055357292235003	-0.6014075188028536	0.17471616958118613	0.4660755474156856	-0.5374236565737527	0.09115908181334823	0.5272489321376816	-0.6515933895377664	0.17111238110227336	0.4177222986585729	-0.6840329679347703	0.10859867292871062	0.3793752018852528
601	20.033333333333335	-0.051929066475979585	-0.46663238837720145	0.19648105512411088	-0.018669315131891986	-0.3761349126650091	0.06525669872416377	0.3266404679620961	-0.7177639368723854	-0.09128876728768015	0.657047941970226	-0.9062731874333558	-0.1227215131512008	0.8295801067510988	-0.8689124473923978	-0.1770336974992164	0.7854187775178972	-0.8644090234441506	-0.20844918276124846	0.6850734341466935	-0.9151504930851239	-0.0706876852160779	0.05573929539155418	-0.39125043694007744	0.2828200565769594	0.37892279714099836	-0.6711944731830379	0.10580008997657138	0.7017775818148739	-0.9091605963821874	-0.039784001714098814	0.8513463596136681	-0.8816545091696789	-0.1609370204253984	0.8689061157320617	-0.8877389842755751	-0.1004928341234821	0.7150709633607419	-0.9456221563472338	-0.026429622000084158	-0.10068662086593638	-0.4244414557892855	0.21311438436031924	-0.1798792100524635	-0.35287230614930243	0.24676220631517523	-0.2767878228809093	-0.25822491722214386	0.2886580494357615	-0.38308932593282014	-0.16243465757333797	0.3345565630679056	-0.4804570664391783	-0.06017255822954051	0.38346799849720137	-0.22698760996046924	-0.24591003182101778	0.39347976397944817	-0.3663302287748755	-0.2567221301501627	0.1735977764744657	-0.4665959965319199	-0.09391535642633966	0.3422770425021498	-0.5882882928632646	-0.06755725569932432	0.19763914134820498	-0.5865700454334433	-0.14240974971395376	-0.09506447115675322	-0.45469195598794043	0.014220618054560787	-0.23620958476733728	-0.4423586320065721	-0.0903025586865511	0.3723505826728717	-0.3571132776706932	-0.09199634601972481	0.5474851002682006	-0.0926229319863975	-0.307723288124901	0.5021996502634473	0.15663609488251784	-0.4907029590084582	0.3589681318155057	-0.5568706851378384	0.013732337117656965	0.4316390803763772	-0.5874223520644533	0.04877624801358291	0.4587931486706359	-0.6297888792763586	0.099739301010993	0.4985395221303107	-0.6952086203772332	0.18141278451692638	0.5607021961670139	-0.5948783270641108	0.1720399140124904	0.4082911731555568	-0.6008242486152298	0.17406471323817813	0.46789665327628277	-0.5376979979864616	0.092280988734654	0.5293728005117183	-0.6507796760435961	0.16995894513364496	0.4197958617152714	-0.6843716829769011	0.10728435227373036	0.38039118321762383
602	20.066666666666666	-0.05216892716822622	-0.46404826327182896	0.19781098439652706	-0.01904789886106537	-0.3739385065019914	0.06566336126200867	0.3249303609702141	-0.7292796225338001	-0.09252231609271833	0.657929226218424	-0.908670492257718	-0.12300260757990272	0.8300241010043897	-0.8733697984045059	-0.17810601079614594	0.7870777479936073	-0.8688989432006882	-0.20934566257990184	0.6873028572551496	-0.9215343915206526	-0.07156622324697874	0.05537833189295081	-0.3908799475856894	0.2826598237169634	0.3785957318713866	-0.6713277599370076	0.10576653864059633	0.7018855196754952	-0.9097499665787896	-0.03962111196287594	0.8513040115183687	-0.8837918040816424	-0.1616299944974377	0.8687528665516718	-0.8881597823858389	-0.10051886497857446	0.7156682914525919	-0.9487369300631923	-0.02614614468389571	-0.10175851131339067	-0.4207406721466287	0.21551010963407166	-0.18084018454663603	-0.34890773942155046	0.24946553299978014	-0.2775207666946529	-0.25463848695125335	0.2910184864094444	-0.3835168865255048	-0.1600351050825874	0.33659532457033614	-0.4809250006710532	-0.05924101982818958	0.3847296933700085	-0.22892447684216172	-0.24566386524722206	0.39517160633729315	-0.3658572643640511	-0.2529930416725881	0.17635787907828138	-0.4670954849502903	-0.09278086297165718	0.34345085236095496	-0.587388899646961	-0.06696480665219236	0.19736675419411093	-0.5861482086699212	-0.1466821859675262	-0.096910825389033	-0.45400830684958554	0.01348071902783276	-0.23677854076549784	-0.44281779515639996	-0.08909662037387303	0.3736864296900746	-0.357332517943662	-0.09313951721976409	0.548340001587953	-0.09398726847869543	-0.30716418464268297	0.502513033989459	0.15509309916751507	-0.4892810398482597	0.3594823189111107	-0.557426077685661	0.01448548175174779	0.43244486689316863	-0.5877388285418904	0.048792456049185924	0.4595094597865801	-0.630264962370784	0.09879077057680777	0.49929606269765636	-0.6956891638759236	0.17853218283054015	0.5612581841298677	-0.5949953558059237	0.17009278633378627	0.41070318297440417	-0.6005096486391903	0.17140076852477693	0.46936083203596	-0.5372154447674641	0.09110973108272508	0.5308076510885812	-0.6506502388959085	0.16887667404559123	0.42162680514342654	-0.6850081061075164	0.10822605627207257	0.38106273533716284
603	20.1	-0.052595565859504825	-0.46761386730557564	0.19691941223118375	-0.020326907220275157	-0.3710089744676851	0.06612008335218583	0.3254660076856281	-0.7234047616913459	-0.09237808955770352	0.6575842470855731	-0.908318633928334	-0.12338578742729395	0.8295585711300236	-0.8721815248452982	-0.17853779270607223	0.7863650962676703	-0.8647695628628871	-0.2077185988731926	0.6860198678546888	-0.9194824333639374	-0.07189153077224994	0.053821877823575205	-0.392212091603489	0.2826194465700129	0.37801988692399724	-0.6735326358320951	0.10479642810243037	0.7000196228563582	-0.910019066976169	-0.03916103315682856	0.8513522039426036	-0.8847930452366135	-0.16149202656048042	0.8681990283229608	-0.8890898017263599	-0.1000227189525984	0.7138233810022772	-0.948285499698121	-0.024839227310428362	-0.10168251120609045	-0.4247958212317572	0.21462353211843246	-0.18093300813803465	-0.35248342009127953	0.24887066346165257	-0.2779094021592734	-0.25760135545666907	0.2907974266232573	-0.38366537228857034	-0.16246293990167096	0.33649860982929874	-0.48097833899800346	-0.06140965873642749	0.384850381740635	-0.22895095856247133	-0.24902731329556715	0.3952371119565282	-0.3652172392257007	-0.25605294728761513	0.17519622654148015	-0.466511179856213	-0.09563692450997378	0.3432610471245897	-0.5878383572059044	-0.06960138465132698	0.1977661056122864	-0.5855003492880829	-0.14866400688770548	-0.09583090396433647	-0.4537058998984731	0.011623591656265047	-0.2378076117913757	-0.442610047210505	-0.09014510924123316	0.3739527104558096	-0.3579057383804736	-0.09285934944758581	0.5491313169396377	-0.09419353390422885	-0.3057134710103318	0.5028991243522934	0.15402404202725378	-0.48859170985332967	0.3597912920527459	-0.5574266630966352	0.013597290458860902	0.43280790860305324	-0.5879276603601382	0.04810720440354879	0.460086669589594	-0.6304891785744499	0.09805522729398478	0.5002110188537189	-0.6965789088110343	0.17869996579382838	0.5629061391350467	-0.5961752943660366	0.1693366705566554	0.410778785001093	-0.6016867637662201	0.17148936163067238	0.46974104173465675	-0.538238539638607	0.09079839923099271	0.5312359261924955	-0.6514427959018477	0.16864017292795436	0.42238467891403675	-0.6858559809354922	0.10623470298184413	0.38115395161550036
